<svg width="62" height="32" viewBox="0 0 62 32" fill="none" xmlns="http://www.w3.org/2000/svg">
<path fill-rule="evenodd" clip-rule="evenodd" d="M4.94181 0.220703H6.00204L9.04137 8.86344H7.14305L6.5574 7.10232H4.94181V5.61605H6.08282L4.94181 2.1447V0.220703ZM0.902832 8.86344L3.93206 0.220703H4.9519V2.1447L3.81089 5.61605H4.9519V7.10232H3.30602L2.74057 8.86344H0.902832Z" fill="white"/>
<path fill-rule="evenodd" clip-rule="evenodd" d="M10.041 8.86389V2.47091H11.6364V3.62124C11.697 3.49908 11.7576 3.37692 11.8384 3.25476C12.2322 2.62361 12.737 2.29785 13.3631 2.29785L13.7367 2.30803V4.02843C13.5852 4.00808 13.4237 4.00808 13.2318 4.00808C12.7269 4.00808 12.3432 4.13023 12.0908 4.38473C11.8384 4.63923 11.7172 5.02606 11.7172 5.54524V8.86389H10.041Z" fill="white"/>
<path fill-rule="evenodd" clip-rule="evenodd" d="M20.1789 6.49197C20.0982 7.286 19.8053 7.90698 19.3005 8.35489C18.7956 8.80281 18.1494 9.02677 17.3416 9.02677C16.3823 9.02677 15.6452 8.74173 15.1201 8.16148C14.5951 7.58122 14.3325 6.76683 14.3325 5.69794C14.3325 4.65959 14.6052 3.82484 15.1504 3.21404C15.6957 2.60325 16.4227 2.29785 17.3416 2.29785C18.1594 2.29785 18.8259 2.52181 19.3509 2.9799C19.876 3.438 20.1486 4.02844 20.189 4.77157H18.4927C18.4725 4.45599 18.3614 4.20149 18.1594 3.9979C17.9474 3.80448 17.6849 3.70268 17.3618 3.70268C16.9377 3.70268 16.6246 3.87574 16.4025 4.21167C16.1804 4.54761 16.0693 5.04642 16.0693 5.69794C16.0693 6.32909 16.1804 6.81773 16.4025 7.14349C16.6246 7.47942 16.9377 7.6423 17.3618 7.6423C17.6647 7.6423 17.9171 7.5405 18.1292 7.32672C18.3412 7.11295 18.4624 6.83809 18.4927 6.49197H20.1789Z" fill="white"/>
<path fill-rule="evenodd" clip-rule="evenodd" d="M21.3398 8.86344V0.220703H23.016V3.27467L23.1473 3.09144C23.5613 2.56208 24.157 2.2974 24.9446 2.2974C25.6111 2.2974 26.1361 2.501 26.5097 2.89802C26.8934 3.29503 27.0752 3.85493 27.0752 4.55734V8.86344H25.399V4.86274C25.399 4.46572 25.3182 4.17051 25.1466 3.98727C24.9749 3.79385 24.7124 3.70223 24.3691 3.70223C23.9349 3.70223 23.5916 3.83457 23.3593 4.09925C23.1271 4.36392 23.0059 4.75076 23.0059 5.24957V8.85326H21.3398" fill="white"/>
<path fill-rule="evenodd" clip-rule="evenodd" d="M30.3674 8.86397H28.6913V2.47099H30.3674V8.86397ZM28.6812 0.160156H30.3775V1.71768H28.6812V0.160156Z" fill="white"/>
<path fill-rule="evenodd" clip-rule="evenodd" d="M34.8603 8.89392C34.5776 8.91428 34.2343 8.93464 33.8304 8.93464C33.2447 8.93464 32.8206 8.83284 32.5581 8.60888C32.2955 8.39511 32.1744 8.04899 32.1744 7.56035V3.65127H31.2959V2.4704H32.1744V0.75H33.8506V2.4704H34.8704V3.65127H33.8506V7.2855C33.8506 7.4382 33.8909 7.52981 33.9818 7.58071C34.0727 7.63161 34.2544 7.65197 34.5271 7.65197H34.8704V8.89392" fill="white"/>
<path fill-rule="evenodd" clip-rule="evenodd" d="M38.4351 9.02677H38.415V7.68302C38.4755 7.68302 38.5361 7.6932 38.6068 7.6932C38.8592 7.6932 39.0915 7.62194 39.3136 7.47942C39.5257 7.3369 39.6569 7.16385 39.6973 6.96025H41.3937C41.2523 7.61176 40.9191 8.12076 40.3941 8.48723C39.8791 8.84353 39.2227 9.02677 38.4351 9.02677ZM38.415 2.29785H38.4351C39.4045 2.29785 40.1416 2.59307 40.6667 3.1835C41.1917 3.77394 41.4543 4.60869 41.4543 5.70812C41.4644 5.83028 41.4543 5.96262 41.424 6.08477H38.415V5.00571H39.7074C39.667 4.61887 39.5661 4.32365 39.4045 4.10987C39.1925 3.82484 38.8592 3.68232 38.415 3.68232V2.29785ZM38.415 9.02677C37.4557 9.02677 36.7186 8.72137 36.2036 8.13094C35.6785 7.53032 35.416 6.67521 35.416 5.5656C35.416 4.54761 35.6785 3.7434 36.2137 3.16314C36.7388 2.59307 37.4759 2.29785 38.415 2.29785V3.68232H38.4049C37.9707 3.68232 37.6475 3.8452 37.4153 4.18113C37.2739 4.39491 37.173 4.66977 37.1124 5.01589H38.4049V6.09496H37.0922C37.1326 6.60395 37.2437 6.98061 37.4254 7.2351C37.6274 7.50996 37.9606 7.66266 38.4049 7.6932V9.02677H38.415Z" fill="white"/>
<path fill-rule="evenodd" clip-rule="evenodd" d="M48.0378 6.49197C47.957 7.286 47.6642 7.90698 47.1593 8.35489C46.6545 8.80281 46.0082 9.02677 45.2004 9.02677C44.2412 9.02677 43.5041 8.74173 42.979 8.16148C42.4539 7.58122 42.1914 6.76683 42.1914 5.69794C42.1914 4.65959 42.464 3.82484 43.0093 3.21404C43.5546 2.60325 44.2816 2.29785 45.2004 2.29785C46.0183 2.29785 46.6848 2.52181 47.2098 2.9799C47.7349 3.438 48.0075 4.02844 48.0479 4.77157H46.3415C46.3213 4.45599 46.2102 4.20149 46.0082 3.9979C45.7962 3.80448 45.5337 3.70268 45.2105 3.70268C44.7865 3.70268 44.4734 3.87574 44.2513 4.21167C44.0291 4.54761 43.9181 5.04642 43.9181 5.69794C43.9181 6.32909 44.0291 6.81773 44.2513 7.14349C44.4734 7.47942 44.7865 7.6423 45.2105 7.6423C45.5135 7.6423 45.7659 7.5405 45.9779 7.32672C46.19 7.11295 46.3112 6.83809 46.3415 6.49197H48.0378Z" fill="white"/>
<path fill-rule="evenodd" clip-rule="evenodd" d="M52.1171 8.89392C51.8344 8.91428 51.4911 8.93464 51.0872 8.93464C50.4914 8.93464 50.0774 8.83284 49.8149 8.60888C49.5524 8.39511 49.4312 8.04899 49.4312 7.56035V3.65127H48.5527V2.4704H49.4312V0.75H51.0973V2.4704H52.1171V3.65127H51.0973V7.2855C51.0973 7.4382 51.1377 7.52981 51.2286 7.58071C51.3194 7.63161 51.5012 7.65197 51.7738 7.65197H52.1171V8.89392Z" fill="white"/>
<path fill-rule="evenodd" clip-rule="evenodd" d="M1.50879 20.2345V11.5918H3.29604V14.829H6.64839V11.5918H8.43563V20.2345H6.64839V16.3153H3.29604V20.2345H1.50879Z" fill="white"/>
<path fill-rule="evenodd" clip-rule="evenodd" d="M12.4441 16.3666L12.6158 16.3463C12.8985 16.3055 13.1409 16.2445 13.3327 16.1427C13.4135 16.1019 13.4741 16.0307 13.5246 15.9289C13.5751 15.8271 13.5851 15.7253 13.5751 15.6133C13.5549 15.4301 13.464 15.2875 13.3024 15.1858C13.1106 15.0636 12.8379 15.0025 12.4845 15.0025H12.4542V13.6689C12.5249 13.6689 12.6057 13.6689 12.6764 13.6689C13.464 13.6689 14.09 13.842 14.5444 14.1779C14.9988 14.5139 15.231 14.972 15.231 15.5522V19.1254C15.231 19.4104 15.2512 19.614 15.3017 19.726C15.3522 19.838 15.4431 19.9296 15.5844 20.0008V20.235H13.777C13.7063 19.9805 13.6558 19.726 13.6356 19.4817L13.6255 19.4715C13.2923 19.8685 12.9086 20.1332 12.4542 20.2859V19.1763C12.8278 19.105 13.1308 18.932 13.3731 18.6367C13.4337 18.5655 13.4842 18.4535 13.5347 18.311C13.5751 18.1685 13.5952 18.0259 13.5952 17.8834V17.1505C13.4034 17.2624 13.1409 17.3541 12.8278 17.4151L12.4542 17.4864V16.3666M11.5758 20.3979C10.9901 20.3979 10.5155 20.2248 10.1621 19.8889C9.79861 19.5529 9.62695 19.105 9.62695 18.5553C9.62695 17.975 9.78851 17.5068 10.1116 17.1505C10.4347 16.8044 10.8992 16.5804 11.5253 16.4888L12.4542 16.3564V17.466L12.2018 17.5169C11.909 17.5678 11.6868 17.6696 11.5354 17.8223C11.3839 17.9649 11.3132 18.1583 11.3132 18.3822C11.3132 18.6367 11.3839 18.8302 11.5152 18.9829C11.6464 19.1254 11.8383 19.1966 12.0806 19.1966C12.2119 19.1966 12.3331 19.1865 12.4441 19.1661V20.2757C12.1816 20.3571 11.8888 20.3979 11.5758 20.3979ZM12.4441 15.0127C12.1412 15.0127 11.8989 15.0941 11.7272 15.2468C11.5455 15.3995 11.4546 15.6235 11.4445 15.9085H9.839C9.87939 15.1552 10.1318 14.5953 10.5963 14.2288C11.0305 13.8929 11.6464 13.6995 12.4441 13.6791V15.0127Z" fill="white"/>
<path fill-rule="evenodd" clip-rule="evenodd" d="M18.6339 15.0225V20.2346H16.9578V15.0225H16.0288V13.8416H16.9578V13.3021C16.9578 12.6913 17.1193 12.2332 17.4424 11.9278C17.7656 11.6224 18.2603 11.4697 18.9167 11.4697C19.2095 11.4697 19.472 11.4799 19.7043 11.5104V12.8542H19.1691C18.947 12.8542 18.8056 12.8949 18.7248 12.9865C18.6541 13.0782 18.6138 13.2614 18.6138 13.5362V13.8213H19.6942V15.0225H18.6339Z" fill="white"/>
<path fill-rule="evenodd" clip-rule="evenodd" d="M23.1881 20.3979H23.1679V19.0541C23.2285 19.0541 23.2891 19.0643 23.3496 19.0643C23.6021 19.0643 23.8343 18.993 24.0565 18.8505C24.2685 18.708 24.3998 18.5349 24.4402 18.3313H26.1365C25.9952 18.9829 25.662 19.4918 25.1369 19.8583C24.6219 20.2146 23.9656 20.3979 23.1881 20.3979ZM23.1679 13.6689H23.1881C24.1574 13.6689 24.8945 13.9642 25.4196 14.5546C25.9447 15.145 26.2072 15.9798 26.2072 17.069C26.2173 17.1912 26.2072 17.3235 26.1769 17.4457H23.1679V16.3666H24.4604C24.42 15.9798 24.319 15.6846 24.1574 15.4708C23.9454 15.1857 23.6122 15.0432 23.1679 15.0432V13.6689ZM23.1679 20.3979C22.2086 20.3979 21.4715 20.0925 20.9565 19.502C20.4315 18.9014 20.1689 18.0463 20.1689 16.9367C20.1689 15.9187 20.4315 15.1145 20.9666 14.5342C21.4917 13.9642 22.2288 13.6689 23.1679 13.6689V15.0534H23.1578C22.7236 15.0534 22.4005 15.2163 22.1682 15.5522C22.0269 15.766 21.9259 16.0409 21.8653 16.387H23.1578V17.466H21.8451C21.8855 17.975 21.9966 18.3517 22.1783 18.596C22.3803 18.8709 22.7135 19.0236 23.1578 19.0541V20.3979H23.1679Z" fill="white"/>
<path fill-rule="evenodd" clip-rule="evenodd" d="M29.8219 20.3979H29.8017V19.0541C29.8623 19.0541 29.9228 19.0643 29.9834 19.0643C30.2359 19.0643 30.4681 18.993 30.6902 18.8505C30.9023 18.708 31.0336 18.5349 31.074 18.3313H32.7703C32.629 18.9829 32.2957 19.4918 31.7707 19.8583C31.2557 20.2146 30.6095 20.3979 29.8219 20.3979ZM29.8017 13.6689H29.8219C30.7912 13.6689 31.5283 13.9642 32.0534 14.5546C32.5785 15.145 32.841 15.9798 32.841 17.069C32.8511 17.1912 32.841 17.3235 32.8107 17.4457H29.8017V16.3666H31.0941C31.0538 15.9798 30.9528 15.6846 30.7912 15.4708C30.5792 15.1857 30.246 15.0432 29.8017 15.0432V13.6689ZM29.8017 20.3979C28.8424 20.3979 28.1053 20.0925 27.5903 19.502C27.0653 18.9014 26.8027 18.0463 26.8027 16.9367C26.8027 15.9187 27.0653 15.1145 27.6004 14.5342C28.1255 13.9642 28.8626 13.6689 29.8017 13.6689V15.0534H29.7916C29.3574 15.0534 29.0343 15.2163 28.802 15.5522C28.6607 15.766 28.5597 16.0409 28.4991 16.387H29.7916V17.466H28.4789C28.5193 17.975 28.6304 18.3517 28.8121 18.596C29.0141 18.8709 29.3473 19.0236 29.7916 19.0541V20.3979H29.8017Z" fill="white"/>
<path fill-rule="evenodd" clip-rule="evenodd" d="M33.4165 18.9216L36.6275 15.2161L36.6679 15.1754H33.6487V13.8418H38.758V15.2161L35.5875 18.8503H38.8994V20.2348H33.4165V18.9216Z" fill="white"/>
<path fill-rule="evenodd" clip-rule="evenodd" d="M8.82946 28.5723C8.71839 29.57 8.33469 30.364 7.66826 30.9544C7.00183 31.5449 6.15364 31.8401 5.1237 31.8401C3.92211 31.8401 2.96285 31.4329 2.25603 30.6287C1.54921 29.8143 1.1958 28.7149 1.1958 27.3406C1.1958 25.9357 1.54921 24.816 2.25603 23.9812C2.96285 23.1566 3.92211 22.7393 5.1237 22.7393C6.14354 22.7393 6.98163 23.0141 7.64806 23.574C8.31449 24.1237 8.70829 24.877 8.82946 25.8238H7.03212C6.97153 25.3555 6.77968 24.989 6.43637 24.7142C6.09306 24.4393 5.65887 24.307 5.1439 24.307C4.47747 24.307 3.9625 24.5716 3.5788 25.1112C3.20519 25.6507 3.01334 26.3837 3.01334 27.3304C3.01334 28.2568 3.20519 28.9795 3.5788 29.4987C3.9524 30.0179 4.47747 30.2826 5.1439 30.2826C5.66897 30.2826 6.10316 30.1299 6.43637 29.8245C6.77968 29.5191 6.97153 29.1119 7.03212 28.5825H8.82946" fill="white"/>
<path fill-rule="evenodd" clip-rule="evenodd" d="M12.9288 25.04C13.9284 25.04 14.716 25.3454 15.3017 25.9562C15.8873 26.567 16.1802 27.3916 16.1802 28.4401C16.1802 29.4581 15.8873 30.2725 15.3017 30.8731C14.716 31.4737 13.9284 31.769 12.9288 31.769V30.3539C13.4236 30.3539 13.8073 30.1911 14.0597 29.8653C14.3222 29.5396 14.4535 29.0509 14.4535 28.4198C14.4535 27.7784 14.3222 27.2796 14.0597 26.9539C13.7972 26.6179 13.4236 26.455 12.9288 26.455V25.04ZM12.9288 31.769C11.9392 31.769 11.1516 31.4737 10.566 30.8731C9.98033 30.2725 9.6875 29.4581 9.6875 28.4401C9.6875 27.4018 9.98033 26.567 10.566 25.9562C11.1516 25.3454 11.9392 25.04 12.9288 25.04V26.455C12.434 26.455 12.0503 26.6179 11.7979 26.9539C11.5353 27.2898 11.4142 27.7784 11.4142 28.4198C11.4142 29.0509 11.5454 29.5294 11.7979 29.8653C12.0604 30.1911 12.434 30.3539 12.9288 30.3539V31.769Z" fill="white"/>
<path fill-rule="evenodd" clip-rule="evenodd" d="M17.3516 31.6055V25.2024H18.947V26.1491C19.0075 26.0371 19.0883 25.9251 19.159 25.8233C19.573 25.294 20.1687 25.0293 20.9563 25.0293C21.6228 25.0293 22.1478 25.2329 22.5315 25.6299C22.9153 26.0269 23.097 26.5868 23.097 27.2892V31.5953H21.4208V27.5946C21.4208 27.1976 21.3401 26.9024 21.1684 26.7192C20.9967 26.5257 20.7342 26.4341 20.3909 26.4341C19.9567 26.4341 19.6134 26.5665 19.3811 26.8311C19.1489 27.0958 19.0277 27.4827 19.0277 27.9815V31.5852H17.3516" fill="white"/>
<path fill-rule="evenodd" clip-rule="evenodd" d="M27.5497 31.6365C27.267 31.6569 26.9237 31.6772 26.5198 31.6772C25.9342 31.6772 25.5101 31.5754 25.2475 31.3515C24.985 31.1377 24.8638 30.7916 24.8638 30.303V26.3939H23.9854V25.2028H24.8638V23.4824H26.54V25.2028H27.5598V26.3837H26.54V30.0179C26.54 30.1706 26.5804 30.2622 26.6713 30.3131C26.7621 30.364 26.9439 30.3844 27.2165 30.3844H27.5598V31.6365" fill="white"/>
<path fill-rule="evenodd" clip-rule="evenodd" d="M28.6001 31.6055V25.2024H30.1955V26.3527C30.2561 26.2305 30.3167 26.1084 30.3974 25.9862C30.7912 25.3551 31.2961 25.0293 31.9222 25.0293L32.2958 25.0395V26.7599C32.1443 26.7395 31.9827 26.7395 31.7909 26.7395C31.286 26.7395 30.9023 26.8617 30.6499 27.1162C30.3974 27.3707 30.2763 27.7575 30.2763 28.2767V31.5953H28.6001" fill="white"/>
<path fill-rule="evenodd" clip-rule="evenodd" d="M35.6482 27.727L35.8199 27.7066C36.1026 27.6659 36.345 27.6048 36.5368 27.503C36.6176 27.4623 36.6782 27.391 36.7287 27.2892C36.7792 27.1874 36.7893 27.0856 36.7792 26.9737C36.759 26.7904 36.6681 26.6479 36.5065 26.5461C36.3147 26.4239 36.042 26.3629 35.6886 26.3629H35.6583V25.0293C35.729 25.0293 35.8098 25.0293 35.8805 25.0293C36.6681 25.0293 37.2941 25.1922 37.7485 25.5281C38.2029 25.8641 38.4351 26.3221 38.4351 26.9024V30.4755C38.4351 30.7606 38.4553 30.9642 38.5058 31.0762C38.5563 31.1881 38.6472 31.2798 38.7885 31.351V31.5852H36.9811C36.9104 31.3307 36.8599 31.0762 36.8397 30.8318L36.8296 30.8217C36.4964 31.2187 36.1127 31.4834 35.6583 31.6259V30.5163C36.0319 30.445 36.3349 30.2719 36.5772 29.9767C36.6378 29.9055 36.6883 29.7935 36.7388 29.651C36.7792 29.5085 36.7993 29.3659 36.7993 29.2234V28.4905C36.6075 28.6024 36.345 28.6839 36.0319 28.7551L35.6583 28.8264V27.727M34.7799 31.7684C34.1942 31.7684 33.7196 31.5953 33.3662 31.2594C33.0128 30.9235 32.8311 30.4755 32.8311 29.9258C32.8311 29.3456 32.9926 28.8773 33.3157 28.521C33.6388 28.1749 34.1033 27.9509 34.7294 27.8593L35.6583 27.727V28.8366L35.4059 28.8875C35.1131 28.9384 34.8909 29.0402 34.7395 29.1929C34.588 29.3354 34.5173 29.5288 34.5173 29.7528C34.5173 30.0073 34.588 30.2109 34.7193 30.3534C34.8505 30.4959 35.0424 30.5672 35.2847 30.5672C35.416 30.5672 35.5372 30.557 35.6482 30.5366V31.6462C35.3857 31.7175 35.0929 31.7684 34.7799 31.7684ZM35.6482 26.373C35.3453 26.373 35.103 26.4545 34.9313 26.6072C34.7496 26.7599 34.6587 26.9838 34.6486 27.2689H33.0431C33.0734 26.5156 33.3359 25.9658 33.8004 25.5892C34.2346 25.2533 34.8505 25.0598 35.6482 25.0395V26.373Z" fill="white"/>
<path fill-rule="evenodd" clip-rule="evenodd" d="M45.3718 29.2342C45.291 30.0282 44.9982 30.6492 44.4933 31.0971C43.9885 31.545 43.3422 31.769 42.5344 31.769C41.5752 31.769 40.8381 31.4839 40.313 30.9037C39.7879 30.3234 39.5254 29.509 39.5254 28.4401C39.5254 27.3916 39.798 26.567 40.3433 25.9562C40.8885 25.3454 41.6156 25.04 42.5344 25.04C43.3523 25.04 44.0188 25.264 44.5438 25.7221C45.0689 26.1802 45.3415 26.7706 45.3819 27.5138H43.6855C43.6653 27.1982 43.5543 26.9437 43.3523 26.7401C43.1403 26.5467 42.8777 26.4449 42.5546 26.4449C42.1305 26.4449 41.8175 26.6179 41.5954 26.9539C41.3732 27.2898 41.2622 27.7886 41.2622 28.4401C41.2622 29.0713 41.3732 29.5599 41.5954 29.8857C41.8175 30.2216 42.1305 30.3845 42.5546 30.3845C42.8575 30.3845 43.11 30.2827 43.322 30.0689C43.5341 29.8551 43.6552 29.5803 43.6855 29.2342H45.3718Z" fill="white"/>
<path fill-rule="evenodd" clip-rule="evenodd" d="M49.4511 31.6365C49.1684 31.6569 48.8251 31.6772 48.4212 31.6772C47.8254 31.6772 47.4013 31.5754 47.1489 31.3515C46.8864 31.1377 46.7652 30.7916 46.7652 30.303V26.3939H45.8867V25.2028H46.7652V23.4824H48.4414V25.2028H49.4612V26.3837H48.4414V30.0179C48.4414 30.1706 48.4818 30.2622 48.5726 30.3131C48.6635 30.364 48.8453 30.3844 49.1179 30.3844H49.4612V31.6365" fill="white"/>
<path fill-rule="evenodd" clip-rule="evenodd" d="M53.3892 25.04C54.3889 25.04 55.1765 25.3454 55.7621 25.9562C56.3478 26.567 56.6406 27.3916 56.6406 28.4401C56.6406 29.4581 56.3478 30.2725 55.7621 30.8731C55.1765 31.4737 54.3889 31.769 53.3892 31.769V30.3539C53.884 30.3539 54.2677 30.1911 54.5201 29.8653C54.7827 29.5396 54.9139 29.0509 54.9139 28.4198C54.9139 27.7784 54.7827 27.2796 54.5201 26.9539C54.2576 26.6179 53.884 26.455 53.3892 26.455V25.04ZM53.3892 31.769C52.3997 31.769 51.6121 31.4737 51.0264 30.8731C50.4408 30.2725 50.1479 29.4581 50.1479 28.4401C50.1479 27.4018 50.4408 26.567 51.0264 25.9562C51.6121 25.3454 52.3997 25.04 53.3892 25.04V26.455C52.8945 26.455 52.5108 26.6179 52.2583 26.9539C51.9958 27.2898 51.8746 27.7784 51.8746 28.4198C51.8746 29.0509 52.0059 29.5294 52.2583 29.8653C52.5208 30.1911 52.8945 30.3539 53.3892 30.3539V31.769Z" fill="white"/>
<path fill-rule="evenodd" clip-rule="evenodd" d="M57.792 31.6055V25.2024H59.3874V26.3527C59.448 26.2305 59.5086 26.1084 59.5893 25.9862C59.9831 25.3551 60.488 25.0293 61.1141 25.0293L61.4877 25.0395V26.7599C61.3362 26.7395 61.1746 26.7395 60.9828 26.7395C60.4779 26.7395 60.0942 26.8617 59.8418 27.1162C59.5893 27.3707 59.4682 27.7575 59.4682 28.2767V31.5953H57.792" fill="white"/>
</svg>
