<svg width="310" height="40" viewBox="0 0 310 40" fill="none" xmlns="http://www.w3.org/2000/svg">
<path d="M0.014634 19.3636C0.177119 15.0298 1.58444 10.7403 4.1478 7.29972C5.79484 5.08886 7.90182 3.05113 10.4377 1.8285C13.3038 0.446932 16.6227 0.230286 19.7606 0.230286C24.169 0.230286 28.4478 1.8285 31.6531 4.92815C33 6.23336 34.006 7.77741 34.5734 9.58339C34.7767 10.2307 34.9809 10.8806 35.1354 11.5368C35.1665 11.6726 34.9889 11.8688 34.8832 12.0207C34.8228 12.118 34.7372 12.1972 34.6354 12.2499C34.5337 12.3025 34.4196 12.3267 34.3052 12.3199C32.3856 12.3048 30.4651 12.2835 28.5472 12.327C27.8902 12.3421 27.5199 11.9887 27.3388 11.5092C26.4846 9.25221 24.1921 7.64689 21.912 7.11859C18.2352 6.26621 14.0683 7.1692 11.3406 9.83556C5.99018 15.0679 6.43591 26.7704 12.7782 31.0909C17.2656 34.148 25.4067 33.641 27.1248 27.6281C27.3166 26.9551 27.3343 26.2732 27.3761 25.5904C27.3813 25.4792 27.3634 25.3682 27.3236 25.2643C27.2838 25.1603 27.2229 25.0658 27.1447 24.9865C27.0666 24.9073 26.9729 24.8451 26.8695 24.8039C26.7661 24.7626 26.6553 24.7432 26.5441 24.7469H17.9901C17.7473 24.7405 17.516 24.6416 17.3436 24.4705C17.1712 24.2994 17.0705 24.0689 17.0623 23.8262V19.0404C17.0623 18.6222 17.5151 18.1667 17.9368 18.1667C23.4181 18.1667 28.8991 18.1667 34.3798 18.1667C34.7092 18.1667 35.1709 18.6204 35.1709 18.9463C35.1709 25.3391 35.1709 31.732 35.1709 38.1248C35.1709 38.5244 34.7074 38.9755 34.3061 38.9755H30.1792C29.5914 38.9755 29.1794 38.6514 29.0489 38.0751C28.8908 37.379 28.7425 36.6802 28.5836 35.9841C28.4948 35.6006 28.1832 35.5277 27.8777 35.7835C24.9281 38.2456 21.8143 39.4531 17.9217 39.4309C13.9875 39.4087 9.98305 38.2127 6.91182 35.7018C3.50229 32.9173 1.33139 28.8641 0.452367 24.5853C0.0974434 22.8686 -0.049525 21.1154 0.014634 19.3636Z" fill="white"/>
<path d="M133.974 17.1968C133.614 17.1081 133.473 17.2146 133.347 17.5316C130.668 24.2494 127.85 30.9122 125.106 37.6034C125.003 37.8885 124.867 38.1608 124.701 38.4149C124.416 38.8127 124.05 39.008 123.502 38.9921C121.884 38.9441 120.263 38.9557 118.643 38.9921C118.226 39.0009 117.963 38.8615 117.803 38.5241C115.19 33.0325 113.118 27.2887 110.809 21.6674C110.257 20.3258 109.69 18.9904 109.154 17.6417C109.016 17.2919 108.88 17.0459 108.412 17.2146V38.0127C108.413 38.1387 108.39 38.2637 108.342 38.3804C108.295 38.4972 108.225 38.6034 108.137 38.693C108.048 38.7825 107.942 38.8535 107.826 38.902C107.71 38.9504 107.585 38.9753 107.459 38.9752H101.567C101.239 38.9752 100.778 38.5357 100.756 38.2001C100.751 38.1228 100.756 38.0447 100.756 37.9674V1.60094C100.756 1.08862 101.095 0.745003 101.599 0.745003C104.074 0.745003 106.548 0.752994 109.022 0.7379C109.563 0.7379 109.889 0.999829 110.081 1.44822C111.591 4.96163 113.041 8.49546 114.478 12.0364C115.915 15.5773 117.331 19.1289 118.758 22.6743C119.443 24.3782 120.188 26.0678 120.82 27.7921C120.914 28.0478 121.162 28.0514 121.353 27.9058C121.568 27.7451 121.625 27.4565 121.721 27.2221C121.894 26.7977 122.066 26.3727 122.236 25.9471C122.578 25.0974 122.918 24.2459 123.264 23.397C125.389 18.1726 127.526 12.9521 129.673 7.73542C130.521 5.6533 131.239 3.4673 132.235 1.45177C132.455 1.01936 132.785 0.741451 133.301 0.741451C135.787 0.745003 138.273 0.745003 140.759 0.741451C140.881 0.737996 141.003 0.759153 141.116 0.803663C141.23 0.848174 141.334 0.915128 141.421 1.00054C141.509 1.08595 141.578 1.18807 141.625 1.30083C141.672 1.41359 141.696 1.53467 141.696 1.65687V37.9932C141.686 38.2528 141.577 38.4988 141.392 38.6813C141.207 38.8637 140.96 38.9688 140.7 38.9752H134.875C134.473 38.9752 133.973 38.4709 133.973 38.0669V17.2013L133.974 17.1968Z" fill="white"/>
<path d="M297.207 38.9811H294.011C293.647 38.9811 293.059 38.5274 292.964 38.1705C290.673 29.6262 288.264 21.1095 286.047 12.5458C285.991 12.3282 285.888 12.322 285.724 12.3202C285.561 12.3185 285.481 12.346 285.429 12.5395C284.78 14.9635 284.109 17.3812 283.456 19.8043C281.807 25.9228 280.208 32.0573 278.511 38.1643C278.394 38.6082 277.913 38.9811 277.466 38.9811H271.108C270.871 38.9688 270.643 38.884 270.456 38.7382C270.269 38.5925 270.131 38.3927 270.061 38.166C270.061 37.3199 269.572 36.289 269.37 35.4597C267.047 25.9086 264.416 16.425 261.956 6.90762C261.937 6.81028 261.931 6.71093 261.937 6.61195C261.937 4.91606 261.937 3.22077 261.937 1.52607C261.937 1.15493 262.332 0.756265 262.709 0.755377C264.384 0.755377 266.06 0.755377 267.735 0.755377C268.179 0.755377 268.611 1.22685 268.728 1.78356C269.026 3.2042 269.34 4.61951 269.643 6.03836C270.834 11.6037 272.038 17.1684 273.253 22.7326C273.501 23.8638 273.745 24.9962 273.984 26.1297C274.019 26.2913 274.047 26.4156 274.261 26.4129C274.475 26.4103 274.54 26.3606 274.603 26.1315C275.267 23.7235 275.961 21.3235 276.639 18.9191C278 14.0889 279.366 9.14068 280.717 4.26435C280.98 3.31726 281.247 2.37017 281.517 1.42308C281.605 1.11675 282.082 0.753601 282.404 0.753601H288.996C289.357 0.753601 289.806 1.09011 289.901 1.42751C292.205 9.58492 294.506 17.7426 296.806 25.9006C296.922 26.3126 297.435 26.7246 297.57 26.0906C298.314 22.5959 299.092 19.1082 299.81 15.6134C300.124 14.1419 300.44 12.6704 300.756 11.1988C301.448 7.98819 302.146 4.77933 302.817 1.56425C302.896 1.18601 303.363 0.758928 303.75 0.758041H308.744C309.088 0.758041 309.477 1.14694 309.477 1.49056C309.477 3.21929 309.514 4.95335 309.459 6.67588C309.38 9.1247 308.278 11.4643 307.672 13.8128C306.967 16.5499 306.265 19.2879 305.565 22.0267C304.189 27.3905 302.8 32.7507 301.343 38.0977C301.262 38.3951 301.032 38.6579 300.843 38.9172C300.797 38.9811 300.644 38.9847 300.541 38.9856C299.428 38.9826 298.317 38.9811 297.207 38.9811Z" fill="white"/>
<path d="M75.6882 11.5987C75.6287 9.2564 74.8305 6.93189 73.3752 5.08861C69.449 0.113724 62.5562 0.750346 56.9394 0.745019C52.89 0.741467 48.84 0.741467 44.7894 0.745019C44.5728 0.746997 44.3654 0.832829 44.2108 0.984487C44.0561 1.13614 43.9663 1.34183 43.9601 1.55833V31.9067C43.9601 33.9672 43.9601 36.028 43.9601 38.0891C43.9601 38.5153 44.4102 38.9708 44.8267 38.9708H50.8182C51.2621 38.9708 51.7496 38.4806 51.7496 38.0252V24.467C51.7468 24.3726 51.7632 24.2787 51.7979 24.1909C51.8325 24.1032 51.8846 24.0233 51.951 23.9563C52.0175 23.8893 52.0969 23.8365 52.1843 23.8011C52.2718 23.7657 52.3656 23.7485 52.4599 23.7504C54.115 23.7504 55.9751 23.5151 57.6053 23.8028C58.9984 24.0479 59.7087 25.4445 60.5087 26.4781C61.4836 27.7371 62.4508 29.0018 63.4104 30.272C65.3584 32.8389 67.2958 35.4147 69.2803 37.9532C69.7864 38.6005 70.4532 38.9743 71.2984 38.9743H73.7304C74.1495 38.9743 74.5845 38.5384 74.5845 38.1104C74.5845 36.4482 74.589 34.7861 74.5792 33.124C74.5755 32.9746 74.5269 32.8298 74.4398 32.7084C73.781 31.8285 73.108 30.9575 72.4412 30.0865C71.2336 28.5158 70.0074 26.9593 68.8008 25.3859C68.411 24.8763 68.0239 24.3649 67.6527 23.8428C67.3748 23.4521 67.484 23.1742 67.9093 23.0135C69.8343 22.2863 71.9191 21.2475 73.1541 19.5027C73.9124 18.431 74.7071 17.3851 75.0853 16.1012C75.5169 14.6403 75.7202 13.1216 75.6882 11.5987ZM67.9804 12.364C67.9555 13.3407 67.8126 14.3121 67.2629 15.1662C66.5526 16.2655 65.5156 16.8346 64.2441 16.9598C63.3154 17.0486 62.3795 17.0912 61.4437 17.0965C58.4603 17.1125 55.477 17.1027 52.4937 17.1019C52.3967 17.1042 52.3003 17.0871 52.2101 17.0516C52.1199 17.016 52.0378 16.9627 51.9686 16.8948C51.8993 16.8269 51.8444 16.7458 51.8071 16.6563C51.7698 16.5668 51.7509 16.4707 51.7514 16.3738C51.7514 13.6053 51.7514 10.8366 51.7514 8.06751C51.7501 7.9707 51.7681 7.87461 51.8044 7.78485C51.8407 7.69509 51.8945 7.61347 51.9627 7.54477C52.0309 7.47606 52.1121 7.42165 52.2016 7.38471C52.2911 7.34778 52.3871 7.32906 52.4839 7.32966H57.7074C59.2932 7.32966 60.8799 7.33943 62.4656 7.32966C63.6252 7.3199 64.7511 7.50014 65.8166 7.95119C66.6228 8.29037 67.1626 8.94564 67.5178 9.72699C67.8969 10.551 68.0035 11.461 67.9804 12.364Z" fill="white"/>
<path d="M219.726 19.8283V38.0107C219.726 38.507 219.25 38.9749 218.749 38.9749H212.823C212.385 38.9749 211.935 38.523 211.935 38.0773V23.4847C211.935 22.8951 211.658 22.6207 211.062 22.6207H197.082C196.568 22.6207 196.224 22.9581 196.224 23.4625V38.024C196.224 38.499 195.744 38.9776 195.267 38.9776H189.407C189.004 38.9776 188.5 38.4759 188.5 38.0737V1.54029C188.5 1.21354 188.951 0.750945 189.295 0.750057C191.336 0.745322 193.378 0.745322 195.421 0.750057C195.776 0.750057 196.22 1.2162 196.22 1.56515V15.1606C196.219 15.2683 196.24 15.3751 196.281 15.4746C196.322 15.5742 196.383 15.6644 196.459 15.7401C196.536 15.8158 196.627 15.8753 196.727 15.9152C196.827 15.9551 196.934 15.9744 197.042 15.9722H211.189C211.289 15.9727 211.387 15.9532 211.479 15.9149C211.57 15.8765 211.653 15.8201 211.723 15.749C211.792 15.6779 211.846 15.5936 211.883 15.501C211.919 15.4085 211.936 15.3096 211.933 15.2103V1.58202C211.933 1.47195 211.955 1.36307 211.998 1.2616C212.041 1.16013 212.103 1.06805 212.181 0.990635C212.26 0.913215 212.352 0.851965 212.454 0.810382C212.556 0.768799 212.665 0.747697 212.775 0.748281H218.801C219.041 0.746601 219.273 0.839881 219.446 1.00791C219.618 1.17593 219.717 1.40517 219.722 1.64595L219.726 19.8283Z" fill="white"/>
<path d="M175.51 12.3097C174.556 12.3097 173.601 12.316 172.648 12.316C172.223 12.316 171.797 11.9413 171.721 11.5248C171.504 10.3457 171.445 9.30509 170.545 8.44028C168.77 6.73996 165.788 6.81188 163.494 6.87226C162.173 6.90688 160.849 7.01343 159.619 7.54084C157.768 8.33462 157.087 10.6174 157.965 12.3754C158.893 14.24 161.234 14.8527 163.107 15.2513C168.548 16.4056 175.518 16.6791 179.117 21.6708C181.047 24.347 181.476 27.8923 180.538 31.0231C179.411 34.7842 176.631 36.972 173.073 38.3429C169.672 39.6543 165.89 39.8656 162.301 39.3826C159.483 39.0035 156.441 38.374 154.144 36.5991C152.698 35.4781 151.518 34.0502 150.689 32.4182C149.861 30.7863 149.405 28.9909 149.355 27.1616C149.347 26.8313 149.746 26.4131 150.078 26.4122C152.12 26.4081 154.162 26.4081 156.205 26.4122C156.56 26.4122 157.016 26.8757 157.01 27.2237C156.995 28.3922 157.365 29.4657 157.982 30.4202C159.062 32.1072 161.515 32.5787 163.362 32.8255C165.587 33.1238 167.944 32.9951 170.07 32.2386C171.984 31.5567 173.374 30.0659 173.343 27.9589C173.301 25.2064 171.077 23.5541 168.585 23.0293C161.083 21.4497 148.993 20.5432 149.903 10.0012C150.049 8.3142 150.581 6.6192 151.59 5.24385C152.598 3.8685 153.878 2.88826 155.351 2.11135C160.728 -0.729919 169.05 -0.769875 174.323 2.39548C176.088 3.45474 177.457 5.01389 178.394 6.83496C179.121 8.24494 179.14 9.59988 179.383 11.1129C179.449 11.5213 179.301 11.8232 178.99 12.0895C178.913 12.1648 178.822 12.2238 178.722 12.263C178.622 12.3022 178.515 12.3208 178.408 12.3177C177.441 12.3088 176.476 12.308 175.51 12.3097Z" fill="white"/>
<path d="M259.949 33.6844C259.962 33.0967 259.823 32.571 259.606 32.0392C255.81 22.7544 252.178 13.4013 248.484 4.07485C248.141 3.20915 247.802 2.34256 247.454 1.47953C247.362 1.26465 247.21 1.08102 247.016 0.951087C246.822 0.821153 246.595 0.750547 246.361 0.747901H240.104C239.86 0.74171 239.619 0.812729 239.417 0.950895C239.215 1.08906 239.061 1.28737 238.978 1.51771C238.453 2.85754 237.934 4.19916 237.4 5.53544C233.909 14.2795 230.491 23.0545 226.951 31.7781C226.663 32.4884 226.476 33.1837 226.507 33.9615C226.553 35.2454 226.543 36.5364 226.507 37.8158C226.496 38.2278 226.762 38.9648 227.276 38.9701C228.818 38.9799 230.361 38.9781 231.902 38.9701C231.998 38.9762 232.092 38.9443 232.164 38.8813C232.352 38.63 232.567 38.3805 232.68 38.0946C233.414 36.23 234.123 34.361 234.844 32.4938C234.992 32.1111 235.067 31.6423 235.338 31.3821C235.673 31.0607 236.128 30.7988 236.651 30.7988C240.967 30.7988 245.283 30.8094 249.598 30.7864C250.185 30.7864 250.609 31.0891 251.088 31.3084C251.17 31.3636 251.23 31.4455 251.258 31.5402C251.768 32.8676 252.274 34.3104 252.803 35.6733C253.203 36.6997 253.663 39.074 255.076 38.9958C256.393 38.9248 257.716 38.9763 259.035 38.9754C259.438 38.9754 259.942 38.4738 259.942 38.0715C259.939 36.6083 259.917 35.1459 259.949 33.6844ZM247.114 24.1538C244.42 24.1396 241.725 24.136 239.03 24.1582C238.596 24.1582 238.308 23.9922 238.037 23.7098C238.66 22.0648 239.281 20.4249 239.902 18.79C240.553 17.0817 241.202 15.3733 241.85 13.665C242.2 12.7452 242.548 11.8244 242.893 10.9028C242.955 10.735 242.987 10.5778 243.23 10.5778C243.473 10.5778 243.504 10.735 243.567 10.9028C244.171 12.501 244.778 14.0992 245.388 15.6974C245.976 17.2441 246.564 18.7909 247.151 20.3376C247.575 21.4599 247.992 22.584 248.405 23.6876C248.056 24.1413 247.603 24.1582 247.114 24.1538Z" fill="white"/>
<path d="M91.4918 19.794C91.4918 25.1605 91.4954 30.5269 91.5025 35.8934C91.5025 36.5859 91.5025 37.2785 91.5025 37.971C91.5025 38.3892 91.261 38.629 91.0479 38.906C91.0026 38.9637 90.8703 38.9726 90.7762 38.9726C88.7246 38.9761 86.6723 38.9761 84.6195 38.9726C84.3336 38.9726 83.8586 38.5064 83.8364 38.2081C83.8364 38.1424 83.8364 38.0758 83.8364 38.0092V1.58945C83.8358 1.47653 83.8581 1.36467 83.9019 1.26059C83.9457 1.15651 84.0101 1.06236 84.0912 0.983811C84.1723 0.905262 84.2685 0.843932 84.3739 0.803512C84.4794 0.763092 84.5919 0.744417 84.7047 0.748609H90.6945C90.9059 0.750463 91.108 0.83525 91.2575 0.984712C91.407 1.13417 91.4918 1.33635 91.4936 1.54772C91.4954 7.631 91.4948 13.7131 91.4918 19.794Z" fill="white"/>
</svg>
