<svg width="45" height="28" viewBox="0 0 45 28" fill="none" xmlns="http://www.w3.org/2000/svg">
<path d="M13.595 1.09825L10.187 1.11659C10.187 1.11659 10.187 9.78855 10.1589 11.9486C10.1491 12.6319 10.1711 13.2395 9.8143 13.8605C9.1239 15.0658 7.5659 15.4668 6.27918 15.1942C4.99246 14.9216 4.39492 13.7554 4.20063 12.5329C4.12758 12.0294 4.09449 11.5209 4.10165 11.0122C4.10899 8.39864 4.11591 5.78548 4.12243 3.17273C4.12243 2.60429 4.12243 2.0053 3.83771 1.51021C3.70558 1.28148 3.52123 1.08727 3.29972 0.943434C3.07822 0.799601 2.82584 0.710231 2.56321 0.682623C2.35783 0.664136 2.1508 0.68319 1.95223 0.738855C1.58762 0.830009 1.26486 1.04254 1.03699 1.34152C0.659403 1.88428 0.692395 2.71431 0.691173 3.34142L0.680176 10.8643C0.680176 12.5757 0.707059 14.3861 1.64797 15.8078C2.2455 16.7124 3.17175 17.3701 4.18475 17.7527C5.19775 18.1353 6.29629 18.2551 7.37894 18.2258C9.38784 18.172 11.5446 17.4923 12.648 15.8103C13.5474 14.4424 13.5792 12.7004 13.5816 11.0635C13.5865 7.7426 13.591 4.42083 13.595 1.09825Z" fill="white"/>
<path d="M28.4101 3.19213C28.0506 2.67666 27.6103 2.2226 27.1062 1.84745C26.334 1.3108 25.3637 0.944072 24.264 0.760706C23.5201 0.694221 22.773 0.672993 22.0266 0.69714C21.2146 0.772361 20.4163 0.954869 19.6523 1.2399C17.9794 1.92813 16.9053 3.28748 16.5436 5.17615C16.3872 5.97684 16.3946 5.82159 16.3811 11.9423L16.3677 17.7892H19.7892V12.2773C19.7892 6.62351 19.7989 6.18221 19.9248 5.67612C20.2523 4.33144 21.286 3.64688 22.9723 3.64688C23.4464 3.63002 23.9173 3.73037 24.3434 3.93904C24.8835 4.2043 25.3069 4.65959 25.5323 5.21771C25.7219 5.64463 25.8305 6.1031 25.8525 6.56972C25.8696 6.82399 25.8867 9.07327 25.8867 11.8861C25.8867 16.6328 25.8867 16.7758 25.9551 16.9861C26.0158 17.2281 26.1304 17.4534 26.2902 17.645C26.4499 17.8367 26.6509 17.9897 26.878 18.0929C27.1052 18.1961 27.3527 18.2466 27.6021 18.2408C27.8514 18.235 28.0963 18.173 28.3184 18.0594C28.5691 17.9276 28.7858 17.7394 28.9516 17.5097C29.1174 17.28 29.2278 17.015 29.274 16.7355C29.3192 16.4287 29.3216 6.90589 29.274 6.25189C29.1823 4.961 28.9074 3.99405 28.4101 3.19213Z" fill="white"/>
<path d="M44.5876 14.0109C44.6825 13.3552 44.7026 12.6908 44.6475 12.0306C44.5711 11.4138 44.3586 10.8217 44.0255 10.2972C43.7202 9.89831 43.3554 9.5487 42.9441 9.26055C42.2109 8.78746 41.6072 8.57476 39.2782 7.97576C36.2233 7.19218 36.0608 7.1494 35.7968 7.01493C35.477 6.87201 35.2202 6.61732 35.0747 6.29858C34.9525 6.0541 34.9451 6.0052 34.9354 5.65314C34.9158 5.04925 35.0478 4.68252 35.4241 4.31824C35.9056 3.84882 36.5459 3.62267 37.5015 3.58477C38.3678 3.55299 39.0998 3.68012 39.635 3.95884C40.1702 4.23756 40.4378 4.52727 40.725 5.10182C41.0745 5.80105 41.738 6.17145 42.4186 6.05165C42.6407 6.00941 42.8519 5.92214 43.039 5.79521C43.2261 5.66829 43.3853 5.5044 43.5068 5.31362C43.6282 5.12284 43.7094 4.90922 43.7452 4.6859C43.781 4.46258 43.7708 4.23429 43.7151 4.01507C43.5025 3.17159 42.5469 2.07384 41.4973 1.4773C40.8124 1.12486 40.0757 0.884262 39.3149 0.764615C38.5662 0.696528 37.8141 0.674076 37.0628 0.697381C36.998 0.703493 36.7976 0.729164 36.6217 0.749946C35.0502 0.936978 33.7159 1.58242 32.9069 2.54693C31.8976 3.7498 31.5359 5.54678 31.9526 7.27286C32.23 8.43051 32.9069 9.24954 34.058 9.81798C34.7496 10.1603 35.3423 10.34 37.3842 10.8412C39.0949 11.258 39.6118 11.3949 40.026 11.5477C40.7226 11.8044 41.1563 12.1333 41.3458 12.5538C41.4241 12.7251 41.4625 12.9119 41.4582 13.1002C41.4902 13.4393 41.4267 13.7806 41.2749 14.0855C41.072 14.5121 40.6187 14.8752 40.0419 15.0769C39.233 15.3593 37.8277 15.4265 36.9272 15.2187C35.66 14.9326 34.895 14.0989 34.7728 12.8777L34.7496 12.6418H31.542V12.8606C31.5546 13.2823 31.6136 13.7012 31.718 14.1099C32.2532 16.3189 33.9431 17.71 36.5813 18.1085C39.1413 18.4973 41.5388 17.9863 43.0186 16.7565C43.8288 16.0683 44.3432 15.1722 44.5876 14.0109Z" fill="white"/>
<path d="M10.1527 22.0898C9.82086 21.9123 9.44868 21.8238 9.07248 21.8331C8.8403 21.8196 8.60733 21.8335 8.37841 21.8747C7.63302 22.0299 7.15646 22.5067 7.00371 23.2194C6.96583 23.4064 6.95605 23.8514 6.95605 25.3158V27.1801H8.03626C8.03626 27.1801 8.03626 24.1154 8.06681 23.5409C8.07137 23.3406 8.14719 23.1486 8.28066 22.9993C8.4433 22.8519 8.65636 22.7727 8.87575 22.7781C9.06359 22.7571 9.25375 22.7792 9.43174 22.8429C9.60557 22.9236 9.74503 23.0636 9.82521 23.2377C9.91563 23.4308 9.88753 23.6252 9.88997 23.8318C9.88997 23.9797 9.9193 27.1617 9.9193 27.1617L10.9861 27.1837V25.2877C10.9861 23.2267 10.9861 23.146 10.793 22.7499C10.6424 22.4766 10.4213 22.2486 10.1527 22.0898Z" fill="white"/>
<path d="M16.7026 24.7301C16.4485 24.4367 16.2139 24.3352 15.1557 24.059C14.877 23.9881 14.596 23.9245 14.3247 23.8304C14.2164 23.8053 14.1207 23.7421 14.055 23.6524C13.9893 23.5626 13.958 23.4523 13.9667 23.3414C13.9635 23.2352 13.9925 23.1305 14.0498 23.041C14.1072 22.9516 14.1902 22.8816 14.2881 22.8402C14.4232 22.776 14.571 22.743 14.7206 22.7436C14.8668 22.7369 15.0133 22.7442 15.1581 22.7656C15.244 22.7834 15.3265 22.8147 15.4025 22.8585C15.5036 22.905 15.5925 22.9745 15.6619 23.0616C15.7313 23.1486 15.7793 23.2507 15.8021 23.3597L15.8387 23.5113H16.842V23.4123C16.8334 23.3156 16.8162 23.2199 16.7906 23.1263C16.6244 22.4661 16.1467 22.0261 15.4465 21.8733C15.0676 21.8079 14.6804 21.8079 14.3015 21.8733C13.8372 21.9723 13.5805 22.1104 13.3239 22.4026C12.9378 22.8402 12.8425 23.5859 13.1003 24.1396C13.3068 24.5846 13.6221 24.7435 14.943 25.0675C15.2042 25.1238 15.4592 25.2057 15.7043 25.312C15.8012 25.3552 15.8807 25.4299 15.9299 25.524C15.9792 25.618 15.9952 25.726 15.9756 25.8303C15.9353 26.1163 15.7178 26.2997 15.3316 26.3743C14.5801 26.5185 13.9972 26.2435 13.9093 25.6995L13.886 25.5662H12.8828V25.6506C12.903 26.0737 13.0738 26.4756 13.3643 26.7838C14.139 27.5111 15.8497 27.5038 16.5743 26.7654C16.9641 26.3706 17.1096 25.6787 16.9263 25.0968C16.8749 24.9618 16.7991 24.8375 16.7026 24.7301Z" fill="white"/>
<path d="M44.5838 23.5839C44.387 22.8846 44.0009 22.3798 43.4595 22.1084C43.3018 22.0293 43.1384 21.9618 42.9708 21.9067C42.5751 21.8254 42.1685 21.8122 41.7684 21.8676C41.4579 21.9274 41.1635 22.0517 40.904 22.2323C40.6445 22.413 40.4257 22.646 40.2617 22.9164C39.8548 23.6047 39.757 24.865 40.0381 25.7121C40.1965 26.2072 40.5129 26.6366 40.9387 26.9346C41.4338 27.2378 42.0171 27.364 42.5932 27.2927C43.6929 27.1412 44.4005 26.4688 44.618 25.3686C44.7121 24.8858 44.6949 23.9861 44.5838 23.5839ZM43.4486 25.5826C43.3476 25.8329 43.1723 26.0463 42.9463 26.1938C42.7515 26.3083 42.5295 26.3683 42.3036 26.3674C42.0723 26.3735 41.8438 26.3165 41.6425 26.2023C41.4295 26.0694 41.2597 25.8775 41.1537 25.6498C41.0493 25.4234 40.9828 25.1814 40.957 24.9334C40.9007 24.5139 40.9387 24.0871 41.0682 23.6841C41.1259 23.4899 41.2251 23.3105 41.359 23.1585C41.4944 23.0184 41.6593 22.9102 41.8417 22.8419C42.0026 22.7824 42.1738 22.7558 42.3451 22.7636C42.5081 22.7729 42.6676 22.8144 42.8144 22.8859C43.036 22.9885 43.2235 23.1527 43.3545 23.359C43.5274 23.6703 43.6175 24.021 43.616 24.3772C43.6524 24.7865 43.5951 25.1987 43.4486 25.5826Z" fill="white"/>
<path d="M3.63095 23.8723C3.63095 24.3356 3.63095 24.7977 3.61995 25.261C3.61995 25.4994 3.64072 25.761 3.52219 25.9786C3.33034 26.3245 2.866 26.4382 2.50064 26.3783C1.97031 26.2928 1.842 25.926 1.81756 25.4432C1.79923 25.0764 1.7919 24.7097 1.78701 24.343C1.78701 24.1792 1.78701 24.0154 1.78701 23.854L1.77602 21.958H0.690918V23.8406C0.690918 25.6021 0.690918 25.7439 0.759348 25.9982C0.799311 26.1536 0.854569 26.3047 0.924312 26.4492C1.11005 26.8062 1.54384 27.113 2.03874 27.2438C2.48521 27.3245 2.94252 27.3245 3.389 27.2438C4.08307 27.0678 4.52053 26.6265 4.67572 25.9407C4.71726 25.7573 4.72704 25.3796 4.72704 23.8381V21.9592H3.64072L3.63095 23.8723Z" fill="white"/>
<path d="M18.5381 22.8778H20.0619V25.0317V27.1844H21.1127V25.0317V22.8778H22.6365V21.9609H18.5381V22.8778Z" fill="white"/>
<path d="M27.3702 23.8379C27.3605 25.6581 27.3568 25.7216 27.2884 25.8781C27.143 26.2057 26.8387 26.3671 26.3817 26.3671C26.2397 26.3751 26.0981 26.3455 25.9711 26.2815C25.8786 26.2426 25.7955 26.1844 25.7273 26.1108C25.659 26.0373 25.6072 25.95 25.5752 25.8549C25.497 25.6789 25.497 25.6752 25.4872 23.8146L25.4774 21.9541H24.3936L24.4033 23.9027C24.4168 26.0309 24.4143 25.9808 24.6233 26.416C24.7992 26.7766 25.2343 27.0944 25.7511 27.2387C26.2129 27.326 26.6874 27.3197 27.1466 27.2204C27.804 27.0333 28.1963 26.6458 28.3796 25.9979C28.4297 25.8109 28.4407 25.5664 28.4505 23.8684L28.4639 21.9553H27.38L27.3702 23.8379Z" fill="white"/>
<path d="M33.3773 22.0128C33.205 21.9737 32.8531 21.959 31.9109 21.959H30.6646V27.1837H31.8596C32.9594 27.1837 34.0347 27.1922 34.5724 26.0505C35.1809 24.7571 35.0868 22.3954 33.3773 22.0128ZM33.7634 25.1911C33.7199 25.446 33.6118 25.6855 33.4494 25.8867C33.2282 26.114 32.9321 26.2534 32.616 26.2791C32.3031 26.3031 31.9884 26.2891 31.6788 26.2375C31.6788 25.1235 31.6788 24.0094 31.6788 22.8954C32.1786 22.8159 32.6796 22.8025 33.0718 22.9675C33.4213 23.1142 33.6828 23.4015 33.7793 23.9075C33.8598 24.3326 33.8544 24.7694 33.7634 25.1923V25.1911Z" fill="white"/>
<path d="M37.9081 21.959H36.8584V27.1825H37.9081V21.959Z" fill="white"/>
</svg>
