<svg width="137" height="32" viewBox="0 0 137 32" fill="none" xmlns="http://www.w3.org/2000/svg">
<path d="M30.6147 28.0938H36.3669L30.7804 3.90576H24.2282L12.8506 28.0938H18.9349L20.9073 23.3804H29.6147L30.6147 28.0938ZM23.1379 18.049L26.6476 9.6604H26.7028L28.4834 18.049H23.1379Z" fill="#EAECF0"/>
<path d="M54.2089 22.4654H37.2105L36.3672 28.0938H53.3642L54.2089 22.4654ZM56.147 9.53275H39.1493L39.9933 3.90576H56.991L56.147 9.53275ZM52.7157 18.8133H37.7575L38.6022 13.1863H53.5604L52.7157 18.8133Z" fill="#EAECF0"/>
<path d="M72.9404 21.8921C71.3188 22.6408 68.8979 22.7632 67.7113 22.7632C63.8845 22.7632 61.3509 20.1523 61.4793 16.2719C61.6159 12.1742 64.7129 9.23644 68.9188 9.23644C70.9076 9.23644 72.6576 9.89325 74.2277 11.2203L75.3919 5.42914C72.9897 4.01399 70.974 3.43408 68.4569 3.43408C61.4934 3.43408 55.7472 9.23645 55.5047 16.5264C55.2703 23.5969 59.8658 28.5663 66.6919 28.5663C67.8785 28.5663 70.4464 28.4423 72.0658 27.6945L72.9404 21.8921Z" fill="#EAECF0"/>
<path d="M87.3954 3.49222C93.8632 3.95199 97.8647 9.21775 97.1431 16.2569C96.3961 23.5118 90.5431 28.9126 83.9424 28.4416C77.473 27.9819 73.4723 22.7161 74.1954 15.677C74.9402 8.42285 80.7931 3.02125 87.3954 3.49222ZM91.3886 16.845C92.2677 12.7556 90.7453 9.57002 87.6551 8.94006C84.2588 8.24295 81.17 10.8449 80.2386 15.1664C79.3573 19.2566 80.8797 22.4414 83.97 23.0744C87.3692 23.767 90.4573 21.1666 91.3886 16.845Z" fill="#EAECF0"/>
<path d="M124 28.0938L123.556 3.9043H118.103L111.123 17.5489L108.305 3.9043H102.858L95.3438 28.0938H101.355L105.444 13.932L108.013 28.0938H111.077L118.164 13.9379L118.079 28.0938H124Z" fill="#EAECF0"/>
</svg>