<svg width="269" height="32" viewBox="0 0 269 32" fill="none" xmlns="http://www.w3.org/2000/svg">
<path d="M70.7768 30.574H78.4018V22.0705H85.3479C93.0527 22.0705 97.8375 18.0801 97.8375 11.6642V11.5781C97.8375 5.31843 93.2121 1.43002 85.7719 1.43002H70.7768V30.574V30.574ZM85.1758 16.2315H78.4018V7.73754H85.1343C88.3603 7.73754 90.2124 9.27697 90.2124 11.9638V12.0467C90.2124 14.5869 88.236 16.2315 85.1758 16.2315ZM0 30.574H7.62507V22.0705H14.5712C22.2759 22.0705 27.0607 18.0801 27.0607 11.6642V11.5781C27.0607 5.31843 22.4385 1.43002 14.9951 1.43002H0V30.574V30.574ZM14.4022 16.2315H7.62507V7.73754H14.3576C17.5868 7.73754 19.4357 9.27697 19.4357 11.9638V12.0467C19.4357 14.5869 17.4593 16.2315 14.4022 16.2315ZM48.5521 0.834961C39.7125 0.834961 32.7888 7.49627 32.7888 15.9998V16.0858C32.7888 24.5416 39.6743 31.1646 48.4693 31.1646C57.3089 31.1646 64.2358 24.5065 64.2358 15.9998V15.9169C64.2358 7.45802 57.3439 0.834961 48.5521 0.834961M48.5521 24.3503C44.1084 24.3503 40.6274 20.6818 40.6274 15.9998V15.9169C40.6274 11.2062 43.9969 7.65244 48.4693 7.65244C52.9353 7.65244 56.4354 11.3209 56.4354 15.9998V16.0858C56.4354 20.7966 53.0437 24.3503 48.5521 24.3503ZM104.391 1.4297V17.828C104.391 26.5259 109.048 31.1251 117.862 31.1251C126.781 31.1251 131.499 26.4526 131.499 17.6144V1.4297H123.743V17.8726C123.743 22.0224 121.687 24.3044 117.945 24.3044C114.263 24.3044 112.146 21.8853 112.146 17.6591V1.4297H104.391V1.4297ZM139.262 30.574H161.305V23.9669H146.887V1.43002H139.262V30.574V30.574ZM180.185 0.834961C171.342 0.834961 164.418 7.49627 164.418 15.9998V16.0858C164.418 24.5416 171.307 31.1646 180.099 31.1646C188.941 31.1646 195.865 24.5065 195.865 15.9998V15.9169C195.865 7.45802 188.977 0.834961 180.185 0.834961ZM180.185 24.3503C175.738 24.3503 172.257 20.6818 172.257 15.9998V15.9169C172.257 11.2062 175.629 7.65244 180.099 7.65244C184.568 7.65244 188.068 11.3209 188.068 15.9998V16.0858C188.068 20.7966 184.679 24.3503 180.185 24.3503ZM201.785 1.4297V17.828C201.785 26.5259 206.442 31.1251 215.253 31.1251C224.172 31.1251 228.89 26.4526 228.89 17.6144V1.4297H221.138V17.8726C221.138 22.0224 219.075 24.3044 215.336 24.3044C211.651 24.3044 209.537 21.8853 209.537 17.6591V1.4297H201.785V1.4297ZM234.784 22.4753C235.986 30.1374 244.742 30.966 248.475 30.966C252.645 30.966 262.351 30.0386 262.351 21.4426C262.351 16.2952 257.694 14.418 253.142 13.2642C252.141 13.0156 251.143 12.7925 250.19 12.5885C246.429 11.7726 243.467 11.1287 243.467 9.09211C243.467 7.00766 245.75 6.26823 247.882 6.26823C249.113 6.26823 251.366 6.46583 252.613 7.77579C253.126 8.31761 253.407 8.98374 253.442 9.75505L261.146 8.53753C260.094 2.95351 253.741 0.964681 248.568 0.964681C242.112 0.964681 235.603 3.63239 235.603 9.58613C235.603 14.6761 240.075 16.5247 244.905 17.7646C245.718 17.9685 246.534 18.1566 247.318 18.3351C251.201 19.2179 254.49 19.9669 254.49 22.3478C254.49 24.7924 251.644 25.6625 248.976 25.6625C244.895 25.6625 242.842 24.2346 242.536 21.1653L234.784 22.4753V22.4753ZM262.809 4.22043V4.2045C262.809 2.68419 264.046 1.4093 265.615 1.4093C267.183 1.4093 268.407 2.66825 268.407 4.19175V4.2045C268.407 5.72799 267.17 7.00288 265.602 7.00288C264.033 7.00288 262.809 5.74074 262.809 4.22043M268.082 4.2045V4.19175C268.082 2.82443 267.024 1.71527 265.615 1.71527C264.202 1.71527 263.138 2.83718 263.138 4.2045V4.22043C263.138 5.58775 264.193 6.69372 265.602 6.69372C267.017 6.69372 268.082 5.57182 268.082 4.2045M264.457 2.63638H265.777C266.182 2.63638 266.491 2.75431 266.698 2.96148C266.861 3.12403 266.944 3.35032 266.944 3.61167V3.62442C266.944 4.10569 266.682 4.40529 266.303 4.54553L267.03 5.61006H266.265L265.631 4.6539H265.114V5.61006H264.457V2.63638ZM265.771 4.08976C266.102 4.08976 266.281 3.91127 266.281 3.66586V3.64992C266.281 3.36626 266.08 3.21646 265.755 3.21646H265.114V4.08976H265.771V4.08976Z" fill="white"/>
</svg>
