<svg width="120" height="32" viewBox="0 0 120 32" fill="none" xmlns="http://www.w3.org/2000/svg">
<path d="M10.6815 0V7.71213H2.65195L0 10.3493V21.1644L2.53114 23.6843H10.21L10.6815 23.2155L11.3445 22.5621L12.3021 21.6127L13.4807 20.4407V0H10.6815ZM10.6815 20.8919H2.80812V10.5045H10.6815V20.8919Z" fill="#EAEAEA"/>
<path d="M42.2572 7.71094V10.5034H34.4546V23.6831H31.6523V10.6294L34.5872 7.71094H42.2572Z" fill="#EAEAEA"/>
<path d="M57.0528 7.71094V9.56865L55.1935 7.71094H50.0487L47.2405 10.5034L46.3772 11.3648V20.0615L47.217 20.8907L48.154 21.8196L49.1794 22.8539L50.0251 23.6978H54.5128L57.0557 21.1661V25.491L54.8988 27.6359H50.5319L48.3986 25.5145L46.3359 27.5656L49.1971 30.4107H56.0656L59.8727 26.6221V7.71094H57.0528ZM57.0528 17.2075L53.3341 20.8907H51.1772L49.1676 18.8924V12.5252L51.2008 10.5034H54.0207L57.041 13.5155L57.0528 17.2075Z" fill="white"/>
<path d="M26.593 7.71094H18.4721V10.5034H26.428V13.2958H18.3838L15.6699 15.9944V21.0079L18.3602 23.6831H26.5459L29.2332 21.0079V10.3393L26.593 7.71094ZM26.4251 20.8966H18.4692V16.0823H26.4251V20.8966Z" fill="#EAEAEA"/>
<path d="M118.957 10.2895L116.464 7.81349L116.364 7.71094H110.521L108.285 9.93491V7.71094H105.488V31.9989H108.288V21.4885L110.498 23.6831H115.684L116.47 22.9066L118.498 20.8907L119.278 20.1142V10.6059L118.957 10.2895ZM116.464 18.9568L114.523 20.8907H111.653L108.285 17.5474V13.876L111.676 10.5034H115.212L116.476 11.7604L116.464 18.9568Z" fill="white"/>
<path d="M103.367 7.71094V23.6831H100.559V20.4277L100.097 20.8907L97.4476 23.522L97.2826 23.6831H93.6406L89.5684 19.6337V7.71094H92.3765V18.4763L94.8015 20.8907H96.1246L100.559 16.4779V7.71094H103.367Z" fill="white"/>
<path d="M84.2435 7.71094H77.4957L76.6265 8.58998L74.6817 10.5151L73.8184 11.3765V20.0585L74.6523 20.8907L76.6265 22.8451L77.4663 23.6831H84.0343L84.8092 22.9125L86.8483 20.8907L87.6173 20.1259V11.0659L84.2435 7.71094ZM84.8092 18.9685L82.8733 20.8907H78.6272L76.6265 18.9041V12.5193L78.6596 10.5034H83.0796L84.8063 12.2234L84.8092 18.9685Z" fill="white"/>
<path d="M72.5838 7.71094V10.4975H68.046L65.3882 13.1405V23.6831H62.5859V7.71094H65.3882V9.20531L66.8909 7.71094H72.5838Z" fill="white"/>
</svg>
