<svg width="233" height="57" viewBox="0 0 233 57" fill="none" xmlns="http://www.w3.org/2000/svg">
<path d="M15.1701 54.8738H0V1.75814H14.28C21.5941 1.75814 29.0243 6.50894 29.0243 15.5433C29.2178 19.9047 26.8959 24.0324 23.1034 26.1353L22.3681 26.5247C22.9873 26.7583 23.5678 27.0309 24.187 27.3035C29.4113 29.8736 32.159 34.0403 32.159 39.4142C32.1203 50.123 23.6065 54.8738 15.1701 54.8738ZM3.56032 51.2912H15.1701C17.4146 51.2912 28.5987 50.7071 28.5987 39.3752C28.5987 28.8611 13.9317 28.3938 13.8156 28.3938H11.9967H3.56032V51.2912ZM13.7382 24.8113C24.8448 24.8113 25.4253 17.062 25.4253 15.5433C25.4253 10.6367 21.9424 5.34072 14.28 5.34072H3.56032V24.7723C6.11446 24.7723 11.2227 24.7723 13.7769 24.7723M70.9355 5.34072V1.75814H42.3755V54.9127H70.742V51.3301H45.9359V29.6789L70.1615 29.7178V26.1353L45.9359 26.0963V5.37966H70.9355V5.34072ZM124.224 54.9127V1.75814H120.664V47.5139L85.3703 1.79708H82.7V54.8738H86.2604V8.80647L121.902 54.9127H124.224ZM227.938 1.75814L211.491 26.992L195.198 1.75814H190.942L209.633 30.6914V54.9127H213.194V30.925L232.195 1.75814H227.938ZM161.917 56.1199C146.67 56.1588 134.247 43.7366 134.209 28.3938C134.209 12.4669 146.399 0.00578698 161.917 0.00578698C177.319 -0.305742 190.051 11.9996 190.361 27.4592C190.671 42.9578 178.442 55.7694 163.078 56.0809C162.691 56.1588 162.304 56.1588 161.917 56.1199ZM161.917 3.66625C148.372 3.66625 137.769 14.5308 137.769 28.4717C137.885 41.7896 148.682 52.5373 161.917 52.4984C175.346 53.0825 186.685 42.6463 187.265 29.1337C187.846 15.6212 177.474 4.21143 164.046 3.62731C163.349 3.58837 162.614 3.58837 161.917 3.62731" fill="white"/>
</svg>
